<?xml version="1.0" encoding="utf-8"?>
<!-- Generator: Adobe Illustrator 22.0.1, SVG Export Plug-In . SVG Version: 6.00 Build 0)  -->
<svg version="1.1" xmlns="http://www.w3.org/2000/svg" xmlns:xlink="http://www.w3.org/1999/xlink" x="0px" y="0px"
	 viewBox="0 0 1000 1000" style="enable-background:new 0 0 1000 1000;" xml:space="preserve">
<style type="text/css">
	.st0{fill:#FFFFFF;stroke:#000000;stroke-width:39;stroke-linejoin:bevel;stroke-miterlimit:10;}
	.st1{fill:#FFFFFF;stroke:#000000;stroke-width:39;stroke-linecap:square;stroke-linejoin:bevel;stroke-miterlimit:10;}
	.st2{fill:#AADDF8;}
	.st3{fill:#FFFFFF;}
	.st4{fill:#EE3B84;}
	.st5{fill:#AADDF8;stroke:#000000;stroke-width:50;stroke-linecap:square;stroke-linejoin:round;stroke-miterlimit:10;}
	.st6{fill:#FFFFFF;stroke:#000000;stroke-width:50;stroke-linecap:round;stroke-linejoin:round;stroke-miterlimit:10;}
	.st7{display:none;fill:#EE3B84;}
	.st8{fill:none;stroke:#000000;stroke-width:25;stroke-linecap:square;stroke-linejoin:round;stroke-miterlimit:10;}
	.st9{fill:#FFFFFF;stroke:#000000;stroke-width:25;stroke-linecap:round;stroke-linejoin:round;stroke-miterlimit:10;}
	.st10{font-family:'BalboaPlus-Fill';}
	.st11{font-size:121.266px;}
	.st12{letter-spacing:24;}
</style>
<g id="Layer_1">
</g>
<g id="Layer_2">
	<g>
		<line class="st3" x1="175.7" y1="936.2" x2="820.4" y2="52.1"/>
		<path d="M193.9,949.5L838.6,65.4c7.3-10,5.1-24.1-4.9-31.4c-10-7.3-24.1-5.1-31.4,4.9L157.5,923c-7.3,10-5.1,24.1,4.9,31.4
			C172.5,961.7,186.5,959.5,193.9,949.5"/>
		<line class="st3" x1="175.7" y1="936.2" x2="179.6" y2="41.3"/>
		<path d="M198.2,936.3l3.9-894.9c0.1-12.4-10-22.5-22.4-22.6c-12.4-0.1-22.5,10-22.6,22.4l-3.9,894.9c-0.1,12.4,10,22.5,22.4,22.6
			C188,958.8,198.1,948.8,198.2,936.3"/>
		<line class="st3" x1="824.3" y1="947.1" x2="179.6" y2="41.3"/>
		<path d="M842.6,934L197.9,28.2c-7.2-10.1-21.3-12.5-31.4-5.3c-10.1,7.2-12.5,21.3-5.3,31.4L806,960.1c7.2,10.1,21.3,12.5,31.4,5.3
			C847.5,958.2,849.9,944.1,842.6,934"/>
		<line class="st3" x1="824.3" y1="947.1" x2="820.4" y2="52.1"/>
		<path d="M846.8,947L842.9,52c-0.1-12.4-10.2-22.5-22.6-22.4c-12.4,0.1-22.5,10.2-22.4,22.6l3.9,894.9
			c0.1,12.4,10.2,22.5,22.6,22.4C836.8,969.5,846.9,959.4,846.8,947"/>
		<text transform="matrix(1 0 0 1 326.5297 956.588)"><tspan x="0" y="0" class="st10 st11 st12">V</tspan><tspan x="77.5" y="0" class="st10 st11 st12">I</tspan><tspan x="134.6" y="0" class="st10 st11 st12">V</tspan><tspan x="212.1" y="0" class="st10 st11 st12">I</tspan><tspan x="269.2" y="0" class="st10 st11">A</tspan></text>
	</g>
</g>
</svg>
